<?xml version="1.0" encoding="UTF-8"?>
<svg width="35px" height="35px" viewBox="0 0 35 35" version="1.1" xmlns="http://www.w3.org/2000/svg" xmlns:xlink="http://www.w3.org/1999/xlink">
    <title>file icon</title>
    <g id="page" stroke="none" stroke-width="1" fill="none" fill-rule="evenodd">
        <g id="054_產品管理_詳細頁面" transform="translate(-236.000000, -450.000000)" fill="#4DA1FF">
            <g id="file-icon" transform="translate(236.000000, 450.000000)">
                <rect id="base" fill-opacity="0.100000001" x="0" y="0" width="35" height="34.692588" rx="2"></rect>
                <path d="M20.1559252,11.3807556 L20.1559252,13.7762752 L22.5726715,13.7762752 L20.1559252,11.3807556 Z M19.2827443,13.7762752 L19.2827443,11.1797406 L13.6070686,11.1797406 C13.3660707,11.1797406 13.1704782,11.3733988 13.1704782,11.6129291 L13.1704782,22.8639301 C13.1704782,23.1036768 13.3660707,23.2969023 13.6070686,23.2969023 L22.3388773,23.2969023 C22.5798753,23.2969023 22.7754678,23.1036768 22.7754678,22.8639301 L22.7754678,14.6424359 L20.1559252,14.6424359 L19.2827443,14.6424359 L19.2827443,13.7762752 Z M23.6486486,13.7775735 L23.6486486,13.7777899 L23.6486486,23.7298744 C23.6486486,23.9691884 23.4530561,24.1626302 23.2120582,24.1626302 L12.7338877,24.1626302 C12.4928898,24.1626302 12.2972973,23.9691884 12.2972973,23.7298744 L12.2972973,10.7474176 C12.2972973,10.5076709 12.4928898,10.3140126 12.7338877,10.3140126 L20.1559252,10.3140126 L20.1559252,10.3155273 L20.1559252,10.3153109 L23.6473389,13.7762752 L23.6486486,13.7762752 L23.6486486,13.7775735 Z" id="Fill-1"></path>
            </g>
        </g>
    </g>
</svg>