<?xml version="1.0" encoding="UTF-8"?>
<svg width="52px" height="52px" viewBox="0 0 52 52" version="1.1" xmlns="http://www.w3.org/2000/svg" xmlns:xlink="http://www.w3.org/1999/xlink">
    <title>pricing</title>
    <g id="page" stroke="none" stroke-width="1" fill="none" fill-rule="evenodd">
        <g id="002_home" transform="translate(-105.000000, -194.000000)" fill="#FFFFFF" fill-rule="nonzero">
            <g id="群組-2" transform="translate(74.000000, 175.000000)">
                <g id="pricing" transform="translate(31.000000, 19.000000)">
                    <path d="M17.5605824,51.7492198 C17.898617,52.0835934 18.4462331,52.0835934 18.7842678,51.7492198 L23.1111111,47.4638821 L21.8874257,46.251935 L18.1724251,49.9312992 L2.08873716,34.0018953 L11.8613185,24.3230582 L10.6376331,23.1111111 L0.253209089,33.3959217 C-0.0844030297,33.7307137 -0.0844030297,34.2730768 0.253209089,34.6078688 L17.5605824,51.7492198 Z" id="路徑"></path>
                    <path d="M51.9937118,17.4306312 L50.1421156,2.41129569 C50.0941983,2.02301917 49.7542568,1.71622775 49.3234533,1.67344799 L32.6590881,0.00463294934 C32.3801733,-0.0218497063 32.1021627,0.0661542129 31.9028087,0.244199153 L25.4222222,6.08505187 L26.7313586,7.26495627 L32.8973184,1.70767174 L48.3886143,3.25792604 L50.1086639,17.215918 L46.4759915,20.4903972 L44.7166134,9.82562594 C45.9796407,9.37338353 46.6974958,8.16740389 46.4167729,6.96916537 C46.136502,5.77092685 44.939022,4.9291856 43.5810642,4.97522467 C42.2235586,5.02167123 41.1002147,5.94245298 40.9207509,7.15658112 C40.7412872,8.37030177 41.5581413,9.52413093 42.8550722,9.88918422 L44.2871661,18.5669411 L31.3603489,6.9194594 C30.998709,6.59351896 30.4128524,6.59351896 30.0512126,6.9194594 L25.4222222,11.0914971 L26.7313586,12.2714015 L30.7057807,8.689316 L42.3578174,19.191117 L40.2349913,21.1043874 L41.5441277,22.2842918 L44.3215219,19.7810692 C44.3739597,19.7272891 44.4182606,19.6673975 44.4530684,19.6034317 L44.8418313,21.9587588 L43.0123856,23.60761 L44.3215219,24.7875144 L45.1804166,24.0129985 L45.7685334,27.5694161 C45.9082169,28.5961285 46.6608798,29.4712786 47.7290735,29.8493695 C48.7977195,30.2274604 50.009665,30.0477857 50.8875458,29.3812375 C51.7649745,28.7146893 52.1672989,27.6688279 51.9353974,26.6555605 L50.2316214,19.4604254 L51.7279065,18.1122542 C51.9268084,17.9329869 52.0244512,17.6824202 51.9937118,17.4306312 L51.9937118,17.4306312 Z M43.6669537,6.67500407 C44.1782221,6.67500407 44.5927518,7.04861338 44.5927518,7.5094116 C44.5927518,7.97020993 44.1782221,8.34381913 43.6669537,8.34381913 C43.1556853,8.34381913 42.7411557,7.97020993 42.7411557,7.5094116 C42.7411557,7.04861338 43.1556853,6.67500407 43.6669537,6.67500407 Z M50.1226775,26.9945386 C50.2112792,27.4080756 50.0422126,27.832613 49.6810248,28.100699 C49.320289,28.3687851 48.8252945,28.4372326 48.3917786,28.2791515 C47.9582628,28.1210703 47.6553895,27.7621285 47.6024996,27.3432949 L46.8145768,22.5446368 L48.67657,20.8664509 L50.1226775,26.9945386 Z" id="形狀"></path>
                    <polygon id="路徑" points="6.93333333 34.5833172 12.6277617 28.8888889 13.8666667 30.1277939 8.17223833 35.8222222"></polygon>
                    <polygon id="路徑" points="9.24444444 35.7388728 14.9385214 30.0444444 16.1777778 31.2833495 10.483273 36.9777778"></polygon>
                    <polygon id="路徑" points="11.5555556 39.1908431 14.923861 35.8222222 16.1777778 37.0758236 12.8090395 40.4444444"></polygon>
                    <polygon id="路徑" points="13.8666667 40.0109912 16.9004285 36.9777778 18.4888889 38.5662381 15.4556755 41.6"></polygon>
                    <polygon id="路徑" points="16.1777778 44.1092961 17.5316552 42.7555556 18.4888889 43.7129261 17.135342 45.0666667"></polygon>
                    <path d="M30.2888424,47.4676319 C33.2929733,47.4663042 36.2174476,46.4730781 38.630828,44.6340167 L44.9904401,51.1714265 C46.0655892,52.2761912 47.8081315,52.2761912 48.88285,51.1714265 C49.9575685,50.0666617 49.9575685,48.27496 48.88285,47.1701953 L42.3759807,40.4814115 L42.2631697,40.5973764 C45.6393187,34.9837021 44.8978662,27.7341263 40.4607773,22.964517 C36.0232578,18.1944652 29.0108918,17.1100608 23.4047882,20.3265372 C17.798254,23.5430137 15.0150087,30.2477316 16.6352673,36.63421 C18.2550954,43.0202458 23.8685189,47.4742712 30.2888424,47.4676319 Z M47.635901,48.4520056 C48.0221279,48.8490304 48.0221279,49.4925913 47.635901,49.8896161 C47.2496741,50.2866409 46.6236161,50.2866409 46.2373891,49.8896161 L39.9888656,43.467286 C40.4689582,43.0003282 40.916327,42.4997316 41.3283886,41.9690373 L47.635901,48.4520056 Z M30.2888424,20.2734235 C37.1070184,20.2734235 42.6343265,25.9552604 42.6343265,32.9640541 C42.6343265,39.9728479 37.1070184,45.6546847 30.2888424,45.6546847 C23.4706663,45.6546847 17.9433582,39.9728479 17.9433582,32.9640541 C17.950678,25.9583586 23.4736804,20.2809479 30.2888424,20.2734235 Z" id="形狀"></path>
                    <path d="M30.0444444,41.6 C35.1500289,41.6 39.2888889,37.4611401 39.2888889,32.3555556 C39.2888889,27.2499711 35.1500289,23.1111111 30.0444444,23.1111111 C24.93886,23.1111111 20.8,27.2499711 20.8,32.3555556 C20.8056424,37.4588831 24.9411169,41.5943576 30.0444444,41.6 Z M30.3181287,24.8444444 C34.4664772,24.8444444 37.8292398,28.207207 37.8292398,32.3555556 C37.8292398,36.5039041 34.4664772,39.8666667 30.3181287,39.8666667 C26.1697801,39.8666667 22.8070175,36.5039041 22.8070175,32.3555556 C22.8114186,28.2090408 26.1716139,24.8488455 30.3181287,24.8444444 Z" id="形狀"></path>
                    <path d="M31.3444444,35.2444444 L29.9,35.2444444 C29.5011556,35.2444444 29.1777778,34.9210666 29.1777778,34.5222222 L27.7333333,34.5222222 C27.7333333,35.7187554 28.7034668,36.6888889 29.9,36.6888889 L29.9,38.1333333 L31.3444444,38.1333333 L31.3444444,36.6888889 C32.5409776,36.6888889 33.5111111,35.7187554 33.5111111,34.5222222 L33.5111111,33.8 C33.5111111,32.6034668 32.5409776,31.6333333 31.3444444,31.6333333 L29.9,31.6333333 C29.5011556,31.6333333 29.1777778,31.3099555 29.1777778,30.9111111 L29.1777778,30.1888889 C29.1777778,29.7900446 29.5011556,29.4666667 29.9,29.4666667 L31.3444444,29.4666667 C31.7432889,29.4666667 32.0666667,29.7900446 32.0666667,30.1888889 L33.5111111,30.1888889 C33.5111111,28.9923557 32.5409776,28.0222222 31.3444444,28.0222222 L31.3444444,26.5777778 L29.9,26.5777778 L29.9,28.0222222 C28.7034668,28.0222222 27.7333333,28.9923557 27.7333333,30.1888889 L27.7333333,30.9111111 C27.7333333,32.1076443 28.7034668,33.0777778 29.9,33.0777778 L31.3444444,33.0777778 C31.7432889,33.0777778 32.0666667,33.4011557 32.0666667,33.8 L32.0666667,34.5222222 C32.0666667,34.9210666 31.7432889,35.2444444 31.3444444,35.2444444 Z" id="路徑"></path>
                    <path d="M4.42962963,21.9954023 L10.3477705,21.9954023 L16.3178211,26.4063861 C16.4679268,26.5178131 16.6478805,26.5777777 16.8325926,26.5777777 C17.0030295,26.5773303 17.1700058,26.5263156 17.3136227,26.4309985 C17.6203226,26.2260447 17.7738889,25.8479091 17.7007827,25.4778287 L17.0276867,21.9954023 L22.1481481,21.9954023 C24.5935286,21.9922698 26.5747497,19.9422833 26.5777778,17.4130268 L26.5777778,4.58237545 C26.5747497,2.05267152 24.5935286,0.00313248324 22.1481481,0 L4.42962963,0 C1.98424916,0.00313248324 0.00302807267,2.05267152 0,4.58237545 L0,17.4130268 C0.00302807267,19.9422833 1.98424916,21.9922698 4.42962963,21.9954023 Z M1.77185185,4.58237545 C1.77185185,3.0640161 2.96188226,1.83295016 4.42962963,1.83295016 L22.1481481,1.83295016 C23.6158955,1.83295016 24.8059259,3.0640161 24.8059259,4.58237545 L24.8059259,17.4130268 C24.8059259,18.9313861 23.6158955,20.1624521 22.1481481,20.1624521 L15.9466667,20.1624521 C15.6806293,20.1624521 15.4284346,20.2859614 15.2601606,20.4989703 C15.0918866,20.7124267 15.0252692,20.9925602 15.0784765,21.2619537 L15.5214395,23.5723838 L11.143287,20.3374237 C10.9944792,20.2251017 10.8153906,20.1637946 10.6311111,20.1624521 L4.42962963,20.1624521 C2.96188226,20.1624521 1.77185185,18.9313861 1.77185185,17.4130268 L1.77185185,4.58237545 Z" id="形狀"></path>
                    <path d="M4.30707071,16.1777778 L21.9555556,16.1777778 L21.9555556,14.637037 L5.14747475,14.637037 L5.14747475,12.5824653 L6.82828283,10.5286459 L8.67733581,12.7882235 C8.84599114,12.9819444 9.10164141,13.0951679 9.37206442,13.0962963 C9.64494949,13.0895255 9.89731695,12.961632 10.0487374,12.7532407 L12.7857955,8.98940977 L16.2668245,12.8198206 C16.4272727,12.9947338 16.6636364,13.0959202 16.9131313,13.0962963 C16.9393939,13.0978009 16.9656566,13.0978009 16.9923295,13.0962963 C17.2680871,13.0722222 17.5130682,12.9255209 17.6476642,12.7032118 L21.8496844,5.7698785 L20.3806186,5.02282984 L16.7736111,10.9732639 L13.357418,7.21357058 C13.1895834,7.02323498 12.9322917,6.91866317 12.6655618,6.93333333 C12.4012942,6.94649887 12.1587753,7.07326389 12.0118687,7.27526049 L9.30928036,10.9932002 L7.50044197,8.78214701 C7.33506947,8.59782984 7.08844692,8.49100123 6.82828283,8.49100123 C6.56811874,8.49100123 6.32149619,8.59782984 6.15612368,8.78214701 L5.14747475,10.0148148 L5.14747475,4.62222222 L3.46666667,4.62222222 L3.46666667,15.4074074 C3.46666667,15.8328415 3.84296083,16.1777778 4.30707071,16.1777778 Z" id="路徑"></path>
                </g>
            </g>
        </g>
    </g>
</svg>