<?xml version="1.0" encoding="UTF-8"?>
<svg width="53px" height="53px" viewBox="0 0 53 53" version="1.1" xmlns="http://www.w3.org/2000/svg" xmlns:xlink="http://www.w3.org/1999/xlink">
    <title>process</title>
    <g id="page" stroke="none" stroke-width="1" fill="none" fill-rule="evenodd">
        <g id="002_home" transform="translate(-262.000000, -191.000000)" fill="#FFFFFF" fill-rule="nonzero">
            <g id="群組" transform="translate(230.000000, 175.000000)">
                <g id="process" transform="translate(32.000000, 16.000000)">
                    <path d="M42.0182299,25.3019262 C41.0644562,25.0416325 40.3778568,24.4028624 40.0324777,23.4546944 C39.8832698,23.0447995 39.717427,22.6346966 39.5397166,22.2359333 C39.1289132,21.3143981 39.1737466,20.3637333 39.6693478,19.4870368 C40.7368279,17.5987115 40.4329348,15.2034274 38.9303076,13.6623683 C37.4276803,12.1211011 35.0922888,11.8094146 33.2511799,12.9043749 C32.3964048,13.4126861 31.4697136,13.4586693 30.5711194,13.0374347 C30.1828342,12.8553748 29.7829856,12.6853828 29.3829342,12.5321404 C28.4583731,12.1781119 27.835575,11.4738002 27.5816884,10.4953582 C27.0345593,8.3861682 25.1683965,6.91304348 23.0434783,6.91304348 C20.9185601,6.91304348 19.0522958,8.3861682 18.5052681,10.4953582 C18.2514829,11.4736961 17.6285834,12.1779038 16.7041238,12.5320364 C16.3043766,12.6851747 15.9045281,12.8550626 15.5158371,13.0373306 C14.6174458,13.4586693 13.6906532,13.4126861 12.8357766,12.9042708 C10.9946677,11.8093106 8.65927618,12.1211011 7.15664894,13.6623683 C5.32598763,15.5398741 5.32598763,18.5949433 7.15664894,20.4724491 L7.33983678,20.6603349 C6.54318265,22.0703108 5.9369181,23.5699643 5.52824487,25.1409852 L5.27121386,25.1409852 C2.6823415,25.1409852 0.576086957,27.301152 0.576086957,29.9565217 C0.576086957,32.1359349 2.01237707,34.0499566 4.06872662,34.6111173 C5.02250034,34.8714109 5.7092012,35.5102852 6.05447885,36.4584531 C6.2037881,36.868348 6.36952949,37.278451 6.54723996,37.6772142 C6.95804328,38.5987494 6.91320993,39.5493102 6.4176087,40.4260066 C5.35012867,42.314332 5.65402169,44.7095121 7.15675037,46.2506752 C8.65937761,47.7918383 10.9948705,48.1036289 12.835878,47.0086686 C13.6907546,46.5002533 14.6174458,46.4542702 15.51604,46.8756088 C15.9046295,47.0577728 16.3043766,47.2277647 16.7042252,47.3809031 C17.6287862,47.7349316 18.2515844,48.4392433 18.5053695,49.4175812 C19.0524987,51.5267712 20.9186615,53 23.0435797,53 C25.1684979,53 27.0347621,51.5268753 27.5817899,49.4176853 C27.835575,48.4393474 28.4584746,47.7350356 29.3831371,47.3809031 C29.7837971,47.2273486 30.1836456,47.0573566 30.5711194,46.8756088 C31.4696122,46.4544783 32.3964048,46.5003573 33.2511799,47.0086686 C35.0923903,48.1034208 37.4275789,47.7918383 38.9302062,46.2506752 C40.4329348,44.7096161 40.7369293,42.314332 39.6693478,40.4260066 C39.1737466,39.5492061 39.1289132,38.5986454 39.5397166,37.6771101 C39.717427,37.2783469 39.8832698,36.868348 40.0324777,36.4582451 C40.3777553,35.5100771 41.0643547,34.8713069 42.0181285,34.6110133 C44.0745794,34.0498526 45.5108696,32.1358308 45.5108696,29.9566258 C45.5108696,27.7771086 44.0745794,25.8630868 42.0182299,25.3019262 L42.0182299,25.3019262 Z M41.2357764,31.5950609 C39.3164627,32.1189773 37.8768253,33.458314 37.1819084,35.3664058 C37.0578559,35.707222 36.9200086,36.0481421 36.7723223,36.3794912 C35.945644,38.2341094 36.0395709,40.2270932 37.0369607,41.9915138 C37.4135812,42.6576449 37.3073809,43.5016747 36.7787125,44.0439011 C36.2501456,44.5861275 35.4272203,44.6949473 34.7776439,44.3087722 C33.0575445,43.2858036 31.1143941,43.1893639 29.3059466,44.0373469 C28.9837957,44.1884046 28.6515014,44.3297871 28.3184972,44.4573331 C26.4578117,45.1699676 25.1518629,46.6466295 24.6411481,48.6154773 C24.4481213,49.3595301 23.7912417,49.8791811 23.0435797,49.8791811 C22.2960191,49.8791811 21.6390381,49.3595301 21.4460112,48.6153733 C20.9351951,46.6466295 19.6292462,45.1698636 17.7686622,44.4573331 C17.436368,44.3299952 17.1040738,44.1887167 16.7811113,44.0373469 C15.9657936,43.6550211 15.1231903,43.4647425 14.2858616,43.4647425 C13.2659536,43.4647425 12.2540588,43.7470914 11.309414,44.3088763 C10.6598376,44.6950513 9.83701379,44.5862315 9.30824399,44.0439011 C8.77957562,43.5017787 8.67337536,42.657853 9.04999578,41.9916178 C10.0473857,40.2273013 10.1413125,38.2342134 9.3147357,36.3796992 C9.16694793,36.0481421 9.02920203,35.707326 8.90504814,35.3666139 C8.21023265,33.458418 6.77059525,32.1189773 4.85107871,31.5950609 C4.12573192,31.3970837 3.61907449,30.723254 3.61907449,29.9565217 C3.61907449,29.0221903 4.36024482,28.2620122 5.27121386,28.2620122 L6.73884675,28.2620122 C7.46764226,28.2620122 8.09409196,27.7319578 8.23264933,26.9979963 C8.61829728,24.9544519 9.39212901,23.040326 10.5327422,21.3085722 C10.9406039,20.6892564 10.8631092,19.8602076 10.34783,19.3316097 L9.30844685,18.2655709 C8.66424639,17.6048495 8.66424639,16.5298638 9.30844685,15.8691424 C9.83711522,15.32702 10.6599391,15.2179922 11.3095155,15.6042713 C13.0297163,16.6272399 14.9729682,16.7237836 16.7810099,15.8758006 C17.1040738,15.7243268 17.436368,15.5830483 17.7686622,15.4558144 C19.6292462,14.7431799 20.9351951,13.266518 21.4459098,11.2977742 C21.6389366,10.5537214 22.2958162,10.0340704 23.0434783,10.0340704 C23.7910389,10.0340704 24.4480199,10.5537214 24.6410467,11.2977742 C25.1518629,13.266518 26.4578117,14.743284 28.3183957,15.4558144 C28.6509943,15.5831523 28.9831871,15.7245348 29.3059466,15.8758006 C31.1141912,16.7235756 33.0573416,16.6271358 34.7774411,15.6042713 C35.4268146,15.2178881 36.2498413,15.326916 36.7785097,15.8692464 C37.307178,16.4113688 37.4133783,17.2553985 37.0367579,17.9215297 C36.039368,19.6858463 35.9454411,21.6789341 36.7721194,23.5335523 C36.9199072,23.8651094 37.0577545,24.2059256 37.1818069,24.5466377 C37.8767239,26.4548335 39.3163613,27.7941702 41.2356749,28.3179826 C41.9611232,28.5159597 42.4677806,29.1897895 42.4677806,29.9565217 C42.4677806,30.723254 41.9612246,31.3970837 41.2357764,31.5950609 Z" id="形狀"></path>
                    <path d="M51.1921148,8.94210208 L50.6452557,8.66217903 C50.741748,8.1962292 50.7800749,7.72134676 50.7595092,7.24604885 L51.3440721,7.05732152 C52.1629586,6.7929786 52.6124945,5.91488233 52.3481532,5.09609444 C52.083812,4.27720267 51.2054098,3.82787165 50.3869387,4.09200683 L49.802272,4.28073417 C49.5410468,3.88302532 49.2323544,3.52021597 48.881596,3.19864204 L49.1616211,2.65177939 C49.5537186,1.88586007 49.250635,0.947105158 48.4847206,0.55490129 C47.7188062,0.162697421 46.7800573,0.465782932 46.3878559,1.23180611 L46.1069999,1.78043451 C45.6370022,1.68414929 45.1624344,1.64769178 44.6928523,1.66804982 L44.5029836,1.07984789 C44.2387462,0.260956123 43.3605517,-0.188582633 42.5417691,0.075760282 C41.7228826,0.340103196 41.2734505,1.21819946 41.5376879,2.03698736 L41.7275566,2.62508543 C41.334732,2.88309242 40.9709902,3.19022877 40.6459907,3.5431707 L40.0973658,3.26231284 C39.3314514,2.87031671 38.3927025,3.17319449 38.0005011,3.93921767 C37.6084037,4.70513698 37.9114872,5.6438919 38.6774016,6.03609576 L39.2242608,6.31601881 C39.1277684,6.78196864 39.0895454,7.25674721 39.1101111,7.73214899 L38.5254444,7.92087632 C37.7066617,8.18511537 37.2571259,9.06331551 37.5213632,9.8821034 C37.7343942,10.5419739 38.3458585,10.9619105 39.0036475,10.9619105 C39.1622522,10.9619105 39.3235575,10.9375016 39.4825777,10.886191 L40.0671405,10.6974637 C40.3283658,11.0951725 40.6370581,11.4579819 40.9877127,11.7795558 L40.7076876,12.3265223 C40.3155901,13.0924416 40.6186737,14.0311965 41.3845881,14.4232966 C41.6118489,14.5397321 41.8542742,14.5947819 42.0932719,14.5947819 C42.6594503,14.5947819 43.2056862,14.2850488 43.4813489,13.7463917 L43.7615818,13.1989059 C44.1459931,13.2784684 44.536221,13.3209502 44.9281107,13.3209502 C45.0113081,13.3209502 45.0945055,13.318769 45.1777029,13.3151337 L45.3660135,13.8984538 C45.5790445,14.5583244 46.1905089,14.9782609 46.8482978,14.9782609 C47.0069026,14.9782609 47.1682078,14.953852 47.327228,14.9025414 C48.1461146,14.6381985 48.5955466,13.7601022 48.3313092,12.9412105 L48.1425831,12.3566439 C48.5402894,12.095417 48.9030964,11.7867227 49.2246683,11.4360658 L49.7716313,11.7160927 C49.9988921,11.8325283 50.2413174,11.8875781 50.4803151,11.8875781 C51.0464934,11.8875781 51.5927294,11.577845 51.8683921,11.0391879 C52.2611128,10.272957 51.9580292,9.33420208 51.1921148,8.94210208 L51.1921148,8.94210208 Z M47.3496633,8.7253305 C46.6679849,10.0568086 45.0303158,10.5857022 43.6986384,9.90381172 C42.3671688,9.22212899 41.8384864,7.5842416 42.5201648,6.25276347 C42.999822,5.31587817 43.9528007,4.77649399 44.9394322,4.77649399 C45.3550036,4.77649399 45.7765993,4.87225987 46.1712935,5.07428225 C47.5027631,5.75586112 48.0313417,7.39374851 47.3496633,8.7253305 Z" id="形狀"></path>
                    <path d="M23.0434783,18.4347826 C16.3727307,18.4347826 10.9456522,23.8618612 10.9456522,30.5326087 C10.9456522,37.2033562 16.3727307,42.6304348 23.0434783,42.6304348 C29.7142258,42.6304348 35.1413043,37.2033562 35.1413043,30.5326087 C35.1413043,23.8618612 29.7142258,18.4347826 23.0434783,18.4347826 Z M23.0434783,39.5339066 C21.5376366,39.5339066 20.1172591,39.1617039 18.8687389,38.5052399 C19.7579586,37.0672122 21.3260405,36.171593 23.0434783,36.171593 C24.7505943,36.171593 26.3301333,37.0899201 27.2156372,38.5066849 C25.9676331,39.16222 24.5481845,39.5339066 23.0434783,39.5339066 L23.0434783,39.5339066 Z M20.6086781,30.5326087 C20.6086781,29.1900573 21.7009268,28.0979118 23.0434783,28.0979118 C24.3860297,28.0979118 25.4781752,29.1901605 25.4781752,30.5326087 C25.4781752,31.8750569 24.3859265,32.9674088 23.0434783,32.9674088 C21.7010301,32.9674088 20.6086781,31.8751601 20.6086781,30.5326087 Z M29.6745902,36.6127451 C29.1729526,35.8719523 28.5497247,35.2112564 27.8311238,34.6726669 C27.6138507,34.5097895 27.3895588,34.3604337 27.1603125,34.2217092 C28.039004,33.2421741 28.5747034,31.9488575 28.5747034,30.5325055 C28.5747034,27.4825284 26.0933521,25.0012803 23.0434783,25.0012803 C19.9936044,25.0012803 17.5121499,27.4826316 17.5121499,30.5325055 C17.5121499,31.9473092 18.0467139,33.2391808 18.9236507,34.218303 C17.9309037,34.8155201 17.0694496,35.627533 16.4083408,36.6083067 C14.9398639,35.0059566 14.0422836,32.872139 14.0422836,30.5324023 C14.0422836,25.5690804 18.0802596,21.5311044 23.0435815,21.5311044 C28.0069033,21.5311044 32.0448793,25.5690804 32.0448793,30.5324023 C32.0448793,32.8744098 31.1455443,35.0098788 29.6745902,36.6127451 L29.6745902,36.6127451 Z" id="形狀"></path>
                </g>
            </g>
        </g>
    </g>
</svg>