<?xml version="1.0" encoding="UTF-8"?>
<svg width="47px" height="47px" viewBox="0 0 47 47" version="1.1" xmlns="http://www.w3.org/2000/svg" xmlns:xlink="http://www.w3.org/1999/xlink">
    <title>s_btncopycopy</title>
    <g id="page" stroke="none" stroke-width="1" fill="none" fill-rule="evenodd">
        <g id="012_詢價範本管理" transform="translate(-799.000000, -317.000000)">
            <g id="群組" transform="translate(800.000000, 318.000000)">
                <path d="M0,0 L41.0065502,0 C43.2120716,0 45,1.79182266 45,3.99344981 L45,41.0065502 C45,43.2120716 43.2081773,45 41.0065502,45 L0,45 L0,0 Z" id="picker" stroke="#E9EFF4" fill-opacity="0.4" fill="#F4F7F9"></path>
                <path d="M24.2725288,26.22393 C24.528658,26.4702452 24.5367023,26.8776065 24.2903871,27.1338965 C24.1640922,27.2651788 23.9953237,27.3313026 23.8263943,27.3313026 C23.6658309,27.3313026 23.5052675,27.2717751 23.3804206,27.1517548 L19.1974061,23.1296255 C19.0712721,23.0083181 19,22.8406757 19,22.6656327 C19,22.4907505 19.0712721,22.3231081 19.1974061,22.2018007 L23.3804206,18.1796714 C23.6365498,17.9333562 24.0440719,17.9412396 24.2903871,18.1975297 C24.5367023,18.4538198 24.528658,18.861181 24.2725288,19.1074962 L20.572009,22.6656327 L24.2725288,26.22393 Z" id="chevron" stroke="#808FA3" stroke-width="0.3" fill="#808FA3" transform="translate(21.735000, 22.665651) scale(-1, 1) rotate(-90.000000) translate(-21.735000, -22.665651) "></path>
            </g>
        </g>
    </g>
</svg>